<?xml version="1.0" encoding="UTF-8"?>
<!-- Do not edit this file with editors other than draw.io -->
<!DOCTYPE svg PUBLIC "-//W3C//DTD SVG 1.1//EN" "http://www.w3.org/Graphics/SVG/1.1/DTD/svg11.dtd">
<svg xmlns="http://www.w3.org/2000/svg" style="background: #ffffff; background-color: var(--ge-adaptive-bg, #ffffff); color-scheme: light dark;" xmlns:xlink="http://www.w3.org/1999/xlink" version="1.1" width="602px" height="1011px" viewBox="0 0 602 1011" id="ge-svg-e-8GDJYyGCN3P3cQp3HH" content="&lt;mxfile host=&quot;app.diagrams.net&quot; scale=&quot;1&quot; border=&quot;0&quot;&gt;&#10;  &lt;diagram name=&quot;Page-1&quot; id=&quot;caVj0bJrPPkejYILRz1P&quot;&gt;&#10;    &lt;mxGraphModel dx=&quot;1385&quot; dy=&quot;622&quot; grid=&quot;1&quot; gridSize=&quot;10&quot; guides=&quot;1&quot; tooltips=&quot;1&quot; connect=&quot;1&quot; arrows=&quot;1&quot; fold=&quot;1&quot; page=&quot;1&quot; pageScale=&quot;1&quot; pageWidth=&quot;827&quot; pageHeight=&quot;1169&quot; math=&quot;0&quot; shadow=&quot;0&quot;&gt;&#10;      &lt;root&gt;&#10;        &lt;mxCell id=&quot;0&quot; /&gt;&#10;        &lt;mxCell id=&quot;1&quot; parent=&quot;0&quot; /&gt;&#10;        &lt;mxCell id=&quot;Rh25Bf8e90bOP8UoptDW-1&quot; parent=&quot;1&quot; style=&quot;rounded=0;whiteSpace=wrap;html=1;strokeOpacity=0;fillOpacity=0;&quot; value=&quot;&amp;lt;font style=&amp;quot;font-size: 16px;&amp;quot;&amp;gt;&amp;lt;b style=&amp;quot;&amp;quot;&amp;gt;Serverless URL Shortener on AWS&amp;lt;/b&amp;gt;&amp;lt;/font&amp;gt;&quot; vertex=&quot;1&quot;&gt;&#10;          &lt;mxGeometry height=&quot;60&quot; width=&quot;400&quot; x=&quot;200&quot; y=&quot;50&quot; as=&quot;geometry&quot; /&gt;&#10;        &lt;/mxCell&gt;&#10;        &lt;mxCell id=&quot;Rh25Bf8e90bOP8UoptDW-2&quot; parent=&quot;1&quot; style=&quot;rounded=0;whiteSpace=wrap;html=1;fillOpacity=0;strokeOpacity=0;&quot; value=&quot;&amp;lt;font style=&amp;quot;font-size: 14px; color: light-dark(rgb(87, 82, 82), rgb(237, 237, 237));&amp;quot;&amp;gt;Amazon API Gateway + AWS Lambda + Amazon DynamoDB&amp;lt;/font&amp;gt;&quot; vertex=&quot;1&quot;&gt;&#10;          &lt;mxGeometry height=&quot;60&quot; width=&quot;420&quot; x=&quot;190&quot; y=&quot;80&quot; as=&quot;geometry&quot; /&gt;&#10;        &lt;/mxCell&gt;&#10;        &lt;mxCell id=&quot;Rh25Bf8e90bOP8UoptDW-3&quot; parent=&quot;1&quot; style=&quot;sketch=0;points=[[0,0,0],[0.25,0,0],[0.5,0,0],[0.75,0,0],[1,0,0],[0,1,0],[0.25,1,0],[0.5,1,0],[0.75,1,0],[1,1,0],[0,0.25,0],[0,0.5,0],[0,0.75,0],[1,0.25,0],[1,0.5,0],[1,0.75,0]];outlineConnect=0;fontColor=#232F3E;fillColor=#8C4FFF;strokeColor=#ffffff;dashed=0;verticalLabelPosition=bottom;verticalAlign=top;align=center;html=1;fontSize=12;fontStyle=0;aspect=fixed;shape=mxgraph.aws4.resourceIcon;resIcon=mxgraph.aws4.api_gateway;&quot; value=&quot;&quot; vertex=&quot;1&quot;&gt;&#10;          &lt;mxGeometry height=&quot;100&quot; width=&quot;100&quot; x=&quot;190&quot; y=&quot;300&quot; as=&quot;geometry&quot; /&gt;&#10;        &lt;/mxCell&gt;&#10;        &lt;mxCell id=&quot;Rh25Bf8e90bOP8UoptDW-14&quot; edge=&quot;1&quot; parent=&quot;1&quot; source=&quot;Rh25Bf8e90bOP8UoptDW-4&quot; style=&quot;edgeStyle=orthogonalEdgeStyle;rounded=0;orthogonalLoop=1;jettySize=auto;html=1;&quot;&gt;&#10;          &lt;mxGeometry relative=&quot;1&quot; as=&quot;geometry&quot;&gt;&#10;            &lt;mxPoint x=&quot;240&quot; y=&quot;700&quot; as=&quot;targetPoint&quot; /&gt;&#10;          &lt;/mxGeometry&gt;&#10;        &lt;/mxCell&gt;&#10;        &lt;mxCell id=&quot;Rh25Bf8e90bOP8UoptDW-26&quot; edge=&quot;1&quot; parent=&quot;1&quot; source=&quot;Rh25Bf8e90bOP8UoptDW-4&quot; style=&quot;edgeStyle=orthogonalEdgeStyle;rounded=0;orthogonalLoop=1;jettySize=auto;html=1;exitX=1;exitY=0.5;exitDx=0;exitDy=0;exitPerimeter=0;&quot;&gt;&#10;          &lt;mxGeometry relative=&quot;1&quot; as=&quot;geometry&quot;&gt;&#10;            &lt;mxPoint x=&quot;560&quot; y=&quot;560&quot; as=&quot;targetPoint&quot; /&gt;&#10;          &lt;/mxGeometry&gt;&#10;        &lt;/mxCell&gt;&#10;        &lt;mxCell id=&quot;Rh25Bf8e90bOP8UoptDW-4&quot; parent=&quot;1&quot; style=&quot;sketch=0;points=[[0,0,0],[0.25,0,0],[0.5,0,0],[0.75,0,0],[1,0,0],[0,1,0],[0.25,1,0],[0.5,1,0],[0.75,1,0],[1,1,0],[0,0.25,0],[0,0.5,0],[0,0.75,0],[1,0.25,0],[1,0.5,0],[1,0.75,0]];outlineConnect=0;fontColor=#232F3E;fillColor=#ED7100;strokeColor=#ffffff;dashed=0;verticalLabelPosition=bottom;verticalAlign=top;align=center;html=1;fontSize=12;fontStyle=0;aspect=fixed;shape=mxgraph.aws4.resourceIcon;resIcon=mxgraph.aws4.lambda;&quot; value=&quot;&quot; vertex=&quot;1&quot;&gt;&#10;          &lt;mxGeometry height=&quot;100&quot; width=&quot;100&quot; x=&quot;190&quot; y=&quot;510&quot; as=&quot;geometry&quot; /&gt;&#10;        &lt;/mxCell&gt;&#10;        &lt;mxCell id=&quot;Rh25Bf8e90bOP8UoptDW-5&quot; parent=&quot;1&quot; style=&quot;sketch=0;outlineConnect=0;fontColor=#232F3E;gradientColor=none;strokeColor=#ffffff;fillColor=#232F3E;dashed=0;verticalLabelPosition=middle;verticalAlign=bottom;align=center;html=1;whiteSpace=wrap;fontSize=10;fontStyle=1;spacing=3;shape=mxgraph.aws4.productIcon;prIcon=mxgraph.aws4.dynamodb;&quot; value=&quot;Amazon DynamoDB&quot; vertex=&quot;1&quot;&gt;&#10;          &lt;mxGeometry height=&quot;125&quot; width=&quot;99&quot; x=&quot;200&quot; y=&quot;710&quot; as=&quot;geometry&quot; /&gt;&#10;        &lt;/mxCell&gt;&#10;        &lt;mxCell id=&quot;Rh25Bf8e90bOP8UoptDW-7&quot; parent=&quot;1&quot; style=&quot;sketch=0;outlineConnect=0;fontColor=#232F3E;gradientColor=none;fillColor=#E7157B;strokeColor=none;dashed=0;verticalLabelPosition=bottom;verticalAlign=top;align=center;html=1;fontSize=12;fontStyle=0;aspect=fixed;pointerEvents=1;shape=mxgraph.aws4.cloudwatch_logs;&quot; value=&quot;&quot; vertex=&quot;1&quot;&gt;&#10;          &lt;mxGeometry height=&quot;81.8&quot; width=&quot;110&quot; x=&quot;560&quot; y=&quot;510&quot; as=&quot;geometry&quot; /&gt;&#10;        &lt;/mxCell&gt;&#10;        &lt;mxCell id=&quot;Rh25Bf8e90bOP8UoptDW-8&quot; parent=&quot;1&quot; style=&quot;rounded=0;whiteSpace=wrap;html=1;fillOpacity=0;strokeOpacity=0;&quot; value=&quot;&amp;lt;font style=&amp;quot;font-size: 16px;&amp;quot;&amp;gt;🌍 Internet Users&amp;lt;/font&amp;gt;&quot; vertex=&quot;1&quot;&gt;&#10;          &lt;mxGeometry height=&quot;50&quot; width=&quot;182&quot; x=&quot;268&quot; y=&quot;130&quot; as=&quot;geometry&quot; /&gt;&#10;        &lt;/mxCell&gt;&#10;        &lt;mxCell id=&quot;Rh25Bf8e90bOP8UoptDW-10&quot; parent=&quot;1&quot; style=&quot;rounded=0;whiteSpace=wrap;html=1;fillOpacity=0;strokeOpacity=0;&quot; value=&quot;&amp;lt;font style=&amp;quot;font-size: 14px;&amp;quot;&amp;gt;&amp;lt;b style=&amp;quot;&amp;quot;&amp;gt;AWS Cloud&amp;lt;/b&amp;gt;&amp;lt;/font&amp;gt;&quot; vertex=&quot;1&quot;&gt;&#10;          &lt;mxGeometry height=&quot;60&quot; width=&quot;120&quot; x=&quot;330&quot; y=&quot;220&quot; as=&quot;geometry&quot; /&gt;&#10;        &lt;/mxCell&gt;&#10;        &lt;mxCell id=&quot;Rh25Bf8e90bOP8UoptDW-13&quot; edge=&quot;1&quot; parent=&quot;1&quot; source=&quot;Rh25Bf8e90bOP8UoptDW-3&quot; style=&quot;edgeStyle=orthogonalEdgeStyle;rounded=0;orthogonalLoop=1;jettySize=auto;html=1;&quot;&gt;&#10;          &lt;mxGeometry relative=&quot;1&quot; as=&quot;geometry&quot;&gt;&#10;            &lt;mxPoint x=&quot;240&quot; y=&quot;500&quot; as=&quot;targetPoint&quot; /&gt;&#10;          &lt;/mxGeometry&gt;&#10;        &lt;/mxCell&gt;&#10;        &lt;mxCell id=&quot;Rh25Bf8e90bOP8UoptDW-15&quot; parent=&quot;1&quot; style=&quot;rounded=0;whiteSpace=wrap;html=1;fillOpacity=0;strokeOpacity=0;&quot; value=&quot;Amazon API Gateway&amp;lt;div&amp;gt;POST /shorten&amp;amp;nbsp;&amp;lt;div&amp;gt;&amp;amp;nbsp;GET /{code}&amp;lt;/div&amp;gt;&amp;lt;/div&amp;gt;&quot; vertex=&quot;1&quot;&gt;&#10;          &lt;mxGeometry height=&quot;40&quot; width=&quot;120&quot; x=&quot;110&quot; y=&quot;400&quot; as=&quot;geometry&quot; /&gt;&#10;        &lt;/mxCell&gt;&#10;        &lt;mxCell id=&quot;Rh25Bf8e90bOP8UoptDW-16&quot; parent=&quot;1&quot; style=&quot;rounded=0;whiteSpace=wrap;html=1;strokeOpacity=0;fillOpacity=0;spacingTop=2;&quot; value=&quot;&amp;lt;div style=&amp;quot;line-height: 100%;&amp;quot;&amp;gt;&amp;amp;nbsp;&amp;lt;span style=&amp;quot;background-color: transparent; color: light-dark(rgb(0, 0, 0), rgb(255, 255, 255));&amp;quot;&amp;gt;AWS Lambda&amp;lt;/span&amp;gt;&amp;lt;/div&amp;gt;&amp;lt;div style=&amp;quot;line-height: 100%;&amp;quot;&amp;gt;&amp;lt;span style=&amp;quot;background-color: transparent; color: light-dark(rgb(0, 0, 0), rgb(255, 255, 255));&amp;quot;&amp;gt;Generate Short URL&amp;lt;/span&amp;gt;&amp;lt;/div&amp;gt;&amp;lt;div style=&amp;quot;line-height: 100%;&amp;quot;&amp;gt;&amp;lt;br&amp;gt;Redirect Requests&amp;lt;/div&amp;gt;&quot; vertex=&quot;1&quot;&gt;&#10;          &lt;mxGeometry height=&quot;40&quot; width=&quot;120&quot; x=&quot;100&quot; y=&quot;620&quot; as=&quot;geometry&quot; /&gt;&#10;        &lt;/mxCell&gt;&#10;        &lt;mxCell id=&quot;Rh25Bf8e90bOP8UoptDW-19&quot; parent=&quot;1&quot; style=&quot;rounded=0;whiteSpace=wrap;html=1;fillOpacity=0;strokeOpacity=0;spacingTop=9;&quot; value=&quot;&amp;lt;div style=&amp;quot;line-height: 100%;&amp;quot;&amp;gt;&amp;lt;div&amp;gt;&amp;lt;span style=&amp;quot;background-color: transparent; color: light-dark(rgb(0, 0, 0), rgb(255, 255, 255));&amp;quot;&amp;gt;Amazon CloudWatch&amp;lt;/span&amp;gt;&amp;lt;/div&amp;gt;&amp;lt;div style=&amp;quot;line-height: 100%;&amp;quot;&amp;gt;&amp;lt;br&amp;gt;&amp;lt;/div&amp;gt;&amp;lt;div&amp;gt;Logs&amp;lt;br&amp;gt;&amp;lt;br&amp;gt;Monitoring&amp;lt;/div&amp;gt;&amp;lt;/div&amp;gt;&quot; vertex=&quot;1&quot;&gt;&#10;          &lt;mxGeometry height=&quot;50&quot; width=&quot;100&quot; x=&quot;580&quot; y=&quot;620&quot; as=&quot;geometry&quot; /&gt;&#10;        &lt;/mxCell&gt;&#10;        &lt;mxCell id=&quot;Rh25Bf8e90bOP8UoptDW-20&quot; parent=&quot;1&quot; style=&quot;rounded=0;whiteSpace=wrap;html=1;fillOpacity=0;strokeOpacity=0;&quot; value=&quot;Amazon DynamoDB&amp;lt;br&amp;gt;&amp;lt;br&amp;gt;URL Mapping&amp;lt;br&amp;gt;&amp;lt;div&amp;gt;shortCode -&amp;amp;gt;&amp;amp;nbsp;&amp;lt;span style=&amp;quot;background-color: transparent; color: light-dark(rgb(0, 0, 0), rgb(255, 255, 255));&amp;quot;&amp;gt;Original URL&amp;lt;/span&amp;gt;&amp;lt;/div&amp;gt;&quot; vertex=&quot;1&quot;&gt;&#10;          &lt;mxGeometry height=&quot;40&quot; width=&quot;150&quot; x=&quot;90&quot; y=&quot;820&quot; as=&quot;geometry&quot; /&gt;&#10;        &lt;/mxCell&gt;&#10;        &lt;mxCell id=&quot;Rh25Bf8e90bOP8UoptDW-21&quot; parent=&quot;1&quot; style=&quot;rounded=0;whiteSpace=wrap;html=1;fillOpacity=0;strokeOpacity=0;opacity=50;&quot; value=&quot;Designed by Claude Emmanuel Ouamba&amp;amp;nbsp;&amp;lt;div&amp;gt;&amp;amp;nbsp;AWS Certified Solutions Architect&amp;lt;/div&amp;gt;&quot; vertex=&quot;1&quot;&gt;&#10;          &lt;mxGeometry height=&quot;60&quot; width=&quot;380&quot; x=&quot;160&quot; y=&quot;1000&quot; as=&quot;geometry&quot; /&gt;&#10;        &lt;/mxCell&gt;&#10;        &lt;mxCell id=&quot;Rh25Bf8e90bOP8UoptDW-22&quot; parent=&quot;1&quot; style=&quot;rounded=1;whiteSpace=wrap;html=1;opacity=30;&quot; value=&quot;&quot; vertex=&quot;1&quot;&gt;&#10;          &lt;mxGeometry height=&quot;720&quot; width=&quot;600&quot; x=&quot;80&quot; y=&quot;240&quot; as=&quot;geometry&quot; /&gt;&#10;        &lt;/mxCell&gt;&#10;        &lt;mxCell id=&quot;Rh25Bf8e90bOP8UoptDW-24&quot; edge=&quot;1&quot; parent=&quot;1&quot; source=&quot;Rh25Bf8e90bOP8UoptDW-8&quot; style=&quot;edgeStyle=orthogonalEdgeStyle;rounded=0;orthogonalLoop=1;jettySize=auto;html=1;entryX=0.242;entryY=0.333;entryDx=0;entryDy=0;entryPerimeter=0;&quot; target=&quot;Rh25Bf8e90bOP8UoptDW-10&quot;&gt;&#10;          &lt;mxGeometry relative=&quot;1&quot; as=&quot;geometry&quot; /&gt;&#10;        &lt;/mxCell&gt;&#10;      &lt;/root&gt;&#10;    &lt;/mxGraphModel&gt;&#10;  &lt;/diagram&gt;&#10;&lt;/mxfile&gt;&#10;"><style type="text/css">@supports (color: light-dark(#000, #fff)) { #ge-svg-e-8GDJYyGCN3P3cQp3HH { --ge-adaptive-bg: light-dark(#ffffff, var(--ge-dark-color, #121212)); } }</style><defs><linearGradient x1="0%" y1="0%" x2="0%" y2="100%" id="drawio-svg-4N3iyrSnVlHaSeDZRTiG-gradient-light-dark_232f3e_bdc7d4_-100-light-dark_232f3e_bdc7d4_-100-s-0"><stop offset="0%" stop-color="#232F3E" stop-opacity="100" style="stop-color: light-dark(rgb(35, 47, 62), rgb(189, 199, 212)); stop-opacity: 100;"/><stop offset="100%" stop-color="#232F3E" stop-opacity="100" style="stop-color: light-dark(rgb(35, 47, 62), rgb(189, 199, 212)); stop-opacity: 100;"/></linearGradient></defs><rect fill="#ffffff" width="100%" height="100%" x="0" y="0" style="fill: var(--ge-adaptive-bg, #ffffff);"/><g><g data-cell-id="0"><g data-cell-id="1"><g data-cell-id="Rh25Bf8e90bOP8UoptDW-1"><g transform="translate(0.5,0.5)"><rect x="120" y="0" width="400" height="60" fill-opacity="0" fill="#ffffff" stroke="#000000" stroke-opacity="0" pointer-events="all" style="fill: var(--ge-adaptive-bg, #ffffff); stroke: light-dark(rgb(0, 0, 0), rgb(255, 255, 255));"/></g><g><g><switch><foreignObject style="overflow: visible; text-align: left;" pointer-events="none" width="100%" height="100%" requiredFeatures="http://www.w3.org/TR/SVG11/feature#Extensibility"><div xmlns="http://www.w3.org/1999/xhtml" style="display: flex; align-items: unsafe center; justify-content: unsafe center; width: 398px; height: 1px; padding-top: 30px; margin-left: 121px;"><div style="box-sizing: border-box; font-size: 0; text-align: center; color: #000000; "><div style="display: inline-block; font-size: 12px; font-family: Helvetica; color: light-dark(#000000, #ffffff); line-height: 1.2; pointer-events: all; white-space: normal; word-wrap: normal; "><font style="font-size: 16px;"><b style="">Serverless URL Shortener on AWS</b></font></div></div></div></foreignObject><text x="320" y="34" fill="light-dark(#000000, #ffffff)" font-family="Helvetica" font-size="12px" text-anchor="middle">Serverless URL Shortener on AWS</text></switch></g></g></g><g data-cell-id="Rh25Bf8e90bOP8UoptDW-2"><g transform="translate(0.5,0.5)"><rect x="110" y="30" width="420" height="60" fill-opacity="0" fill="#ffffff" stroke="#000000" stroke-opacity="0" pointer-events="all" style="fill: var(--ge-adaptive-bg, #ffffff); stroke: light-dark(rgb(0, 0, 0), rgb(255, 255, 255));"/></g><g><g><switch><foreignObject style="overflow: visible; text-align: left;" pointer-events="none" width="100%" height="100%" requiredFeatures="http://www.w3.org/TR/SVG11/feature#Extensibility"><div xmlns="http://www.w3.org/1999/xhtml" style="display: flex; align-items: unsafe center; justify-content: unsafe center; width: 418px; height: 1px; padding-top: 60px; margin-left: 111px;"><div style="box-sizing: border-box; font-size: 0; text-align: center; color: #000000; "><div style="display: inline-block; font-size: 12px; font-family: Helvetica; color: light-dark(#000000, #ffffff); line-height: 1.2; pointer-events: all; white-space: normal; word-wrap: normal; "><font style="font-size: 14px; color: light-dark(rgb(87, 82, 82), rgb(237, 237, 237));">Amazon API Gateway + AWS Lambda + Amazon DynamoDB</font></div></div></div></foreignObject><text x="320" y="64" fill="light-dark(#000000, #ffffff)" font-family="Helvetica" font-size="12px" text-anchor="middle">Amazon API Gateway + AWS Lambda + Amazon DynamoDB</text></switch></g></g></g><g data-cell-id="Rh25Bf8e90bOP8UoptDW-3"><g transform="translate(0.5,0.5)"><path d="M 110 250 L 210 250 L 210 350 L 110 350 Z" fill="#8c4fff" stroke="none" pointer-events="all" style="fill: light-dark(rgb(140, 79, 255), rgb(177, 125, 255));"/><path d="M 151.53 322.35 L 155.72 322.35 L 155.72 319.47 L 151.53 319.47 Z M 158.57 322.35 L 162.85 322.35 L 162.85 319.47 L 158.57 319.47 Z M 141.45 263.83 L 122.89 273.03 L 122.89 330.29 L 141.45 336.56 Z M 144.3 282.04 L 144.3 319.47 L 148.58 319.47 L 148.58 322.35 L 144.3 322.35 L 144.3 338.56 C 144.3 339.02 144.08 339.46 143.71 339.73 C 143.46 339.91 143.17 340 142.87 340 C 142.72 340 142.57 339.98 142.42 339.93 L 121.01 332.69 C 120.43 332.49 120.04 331.94 120.04 331.32 L 120.04 272.14 C 120.04 271.59 120.35 271.09 120.83 270.85 L 142.24 260.22 C 142.68 260 143.21 260.03 143.63 260.29 C 144.04 260.55 144.3 261.01 144.3 261.51 L 144.3 279.16 L 148.58 279.16 L 148.58 282.04 Z M 165.71 322.35 L 169.99 322.35 L 169.99 319.47 L 165.71 319.47 Z M 165.8 282.04 L 169.99 282.04 L 169.99 279.16 L 165.8 279.16 Z M 158.67 282.04 L 162.85 282.04 L 162.85 279.16 L 158.67 279.16 Z M 151.53 282.04 L 155.72 282.04 L 155.72 279.16 L 151.53 279.16 Z M 197.11 273.03 L 178.55 263.83 L 178.55 336.56 L 197.11 330.29 Z M 199.96 331.32 C 199.96 331.94 199.57 332.49 198.99 332.69 L 177.58 339.93 C 177.43 339.98 177.28 340 177.13 340 C 176.83 340 176.54 339.91 176.29 339.73 C 175.92 339.46 175.7 339.02 175.7 338.56 L 175.7 322.35 L 172.94 322.35 L 172.94 319.47 L 175.7 319.47 L 175.7 282.04 L 172.94 282.04 L 172.94 279.16 L 175.7 279.16 L 175.7 261.51 C 175.7 261.01 175.96 260.55 176.37 260.29 C 176.79 260.03 177.31 260 177.76 260.22 L 199.17 270.85 C 199.65 271.09 199.96 271.59 199.96 272.14 Z M 164.19 291.2 L 161.52 290.16 L 154.39 308.88 L 157.05 309.91 Z M 173.85 300.33 C 174.41 299.77 174.41 298.86 173.85 298.3 L 168.15 292.54 L 166.13 294.58 L 170.83 299.32 L 166.13 304.06 L 168.15 306.09 Z M 151.85 306.09 L 146.15 300.33 C 145.59 299.77 145.59 298.86 146.15 298.3 L 151.85 292.54 L 153.87 294.58 L 149.17 299.32 L 153.87 304.06 Z" fill="#ffffff" stroke="none" pointer-events="all" style="fill: light-dark(rgb(255, 255, 255), rgb(18, 18, 18));"/></g></g><g data-cell-id="Rh25Bf8e90bOP8UoptDW-14"><g transform="translate(0.5,0.5)"><path d="M 160 560 L 160 643.63" fill="none" stroke="#000000" stroke-miterlimit="10" pointer-events="stroke" style="stroke: light-dark(rgb(0, 0, 0), rgb(255, 255, 255));"/><path d="M 160 648.88 L 156.5 641.88 L 160 643.63 L 163.5 641.88 Z" fill="#000000" stroke="#000000" stroke-miterlimit="10" pointer-events="all" style="fill: light-dark(rgb(0, 0, 0), rgb(255, 255, 255)); stroke: light-dark(rgb(0, 0, 0), rgb(255, 255, 255));"/></g></g><g data-cell-id="Rh25Bf8e90bOP8UoptDW-26"><g transform="translate(0.5,0.5)"><path d="M 210 510 L 473.63 510" fill="none" stroke="#000000" stroke-miterlimit="10" pointer-events="stroke" style="stroke: light-dark(rgb(0, 0, 0), rgb(255, 255, 255));"/><path d="M 478.88 510 L 471.88 513.5 L 473.63 510 L 471.88 506.5 Z" fill="#000000" stroke="#000000" stroke-miterlimit="10" pointer-events="all" style="fill: light-dark(rgb(0, 0, 0), rgb(255, 255, 255)); stroke: light-dark(rgb(0, 0, 0), rgb(255, 255, 255));"/></g></g><g data-cell-id="Rh25Bf8e90bOP8UoptDW-4"><g transform="translate(0.5,0.5)"><path d="M 110 460 L 210 460 L 210 560 L 110 560 Z" fill="#ed7100" stroke="none" pointer-events="all" style="fill: light-dark(rgb(237, 113, 0), rgb(216, 109, 12));"/><path d="M 142.9 547.14 L 125.17 547.14 L 144.78 506.14 L 153.67 524.44 Z M 146.06 502.22 C 145.82 501.73 145.32 501.41 144.78 501.41 L 144.77 501.41 C 144.22 501.41 143.72 501.73 143.48 502.23 L 121.6 547.96 C 121.39 548.4 121.42 548.92 121.69 549.33 C 121.95 549.75 122.41 550 122.9 550 L 143.81 550 C 144.36 550 144.87 549.68 145.11 549.18 L 156.56 525.04 C 156.74 524.65 156.74 524.2 156.55 523.81 Z M 195.74 547.14 L 178.12 547.14 L 149.85 487.96 C 149.61 487.46 149.11 487.14 148.55 487.14 L 137.02 487.14 L 137.03 472.86 L 159.64 472.86 L 187.78 532.04 C 188.02 532.54 188.52 532.86 189.07 532.86 L 195.74 532.86 Z M 197.18 530 L 189.98 530 L 161.84 470.82 C 161.6 470.32 161.09 470 160.54 470 L 135.6 470 C 134.82 470 134.17 470.64 134.17 471.43 L 134.16 488.57 C 134.16 488.95 134.31 489.31 134.58 489.58 C 134.84 489.85 135.21 490 135.59 490 L 147.65 490 L 175.93 549.19 C 176.16 549.68 176.66 550 177.22 550 L 197.18 550 C 197.97 550 198.61 549.36 198.61 548.57 L 198.61 531.43 C 198.61 530.64 197.97 530 197.18 530 Z" fill="#ffffff" stroke="none" pointer-events="all" style="fill: light-dark(rgb(255, 255, 255), rgb(18, 18, 18));"/></g></g><g data-cell-id="Rh25Bf8e90bOP8UoptDW-5"><g transform="translate(0.5,0.5)"><path d="M 120 660 L 219 660 L 219 785 L 120 785 Z" fill="#ffffff" stroke="none" pointer-events="all" style="fill: light-dark(rgb(255, 255, 255), rgb(18, 18, 18));"/><path d="M 121 661 L 218 661 L 218 758 L 121 758 Z" fill="url(#drawio-svg-4N3iyrSnVlHaSeDZRTiG-gradient-light-dark_232f3e_bdc7d4_-100-light-dark_232f3e_bdc7d4_-100-s-0)" stroke="none" pointer-events="all" style="fill: url(&quot;#drawio-svg-4N3iyrSnVlHaSeDZRTiG-gradient-light-dark_232f3e_bdc7d4_-100-light-dark_232f3e_bdc7d4_-100-s-0&quot;);"/><path d="M 183.98 727.35 C 179.97 730.59 171.55 732.3 163.5 732.3 C 155.44 732.3 147.02 730.59 143.01 727.35 L 143.01 733.88 L 143.02 733.88 C 143.02 737.14 151.43 740.77 163.5 740.77 C 175.56 740.77 183.97 737.14 183.98 733.88 Z M 183.98 714.93 L 186.38 714.92 L 186.38 714.93 C 186.38 716.39 185.66 717.74 184.24 718.98 C 185.96 720.49 186.38 721.97 186.38 723.03 C 186.38 723.04 186.38 723.04 186.38 723.05 L 186.38 733.88 L 186.38 733.88 C 186.38 739.9 174.59 743.15 163.5 743.15 C 152.43 743.15 140.67 739.91 140.61 733.92 C 140.61 733.91 140.61 733.91 140.61 733.9 L 140.61 723.03 C 140.61 723.02 140.61 723.02 140.61 723.02 C 140.62 721.96 141.04 720.49 142.76 718.98 C 141.06 717.48 140.62 716.01 140.61 714.96 L 140.61 714.96 C 140.61 714.96 140.61 714.95 140.61 714.95 L 140.61 704.07 C 140.61 704.07 140.61 704.07 140.61 704.06 C 140.62 703.01 141.05 701.53 142.76 700.03 C 141.06 698.52 140.62 697.05 140.61 696.01 L 140.61 696.01 C 140.61 696 140.61 696 140.61 695.99 L 140.61 685.12 C 140.61 685.12 140.61 685.11 140.61 685.11 C 140.63 679.09 152.41 675.85 163.5 675.85 C 169.76 675.85 175.78 676.85 180 678.58 L 179.08 680.78 C 175.14 679.16 169.46 678.23 163.5 678.23 C 151.43 678.23 143.02 681.86 143.02 685.12 C 143.02 688.38 151.43 692.01 163.5 692.01 C 163.82 692.02 164.14 692.01 164.46 692 L 164.56 694.38 C 164.21 694.4 163.85 694.4 163.5 694.4 C 155.44 694.4 147.02 692.68 143.01 689.44 L 143.01 695.97 L 143.02 695.97 L 143.02 696 C 143.03 697.25 144.31 698.34 145.38 699.03 C 148.62 701.09 154.41 702.5 160.87 702.79 L 160.76 705.17 C 154.22 704.88 148.49 703.52 144.8 701.44 C 143.89 702.12 143.02 703.04 143.02 704.08 C 143.02 707.34 151.43 710.97 163.5 710.97 C 164.68 710.97 165.86 710.93 166.99 710.85 L 167.16 713.23 C 165.97 713.31 164.74 713.35 163.5 713.35 C 155.44 713.35 147.02 711.64 143.01 708.39 L 143.01 714.92 L 143.02 714.92 C 143.03 716.2 144.31 717.29 145.38 717.98 C 149.08 720.34 156.02 721.81 163.5 721.81 L 164.03 721.81 L 164.03 724.2 L 163.5 724.2 C 155.9 724.2 149 722.79 144.78 720.4 C 143.88 721.08 143.02 722 143.02 723.03 C 143.02 726.29 151.43 729.92 163.5 729.92 C 175.56 729.92 183.97 726.29 183.98 723.04 L 183.98 723.03 L 183.98 723.02 C 183.98 721.99 183.11 721.07 182.2 720.4 C 181.62 720.73 180.99 721.05 180.27 721.34 L 179.35 719.14 C 180.23 718.78 180.98 718.4 181.6 717.99 C 182.69 717.28 183.98 716.18 183.98 714.93 Z M 194.27 697.5 L 187.54 697.5 C 187.14 697.5 186.77 697.31 186.55 696.98 C 186.32 696.65 186.28 696.24 186.42 695.87 L 190.52 685.63 L 175 685.63 L 167.79 699.93 L 175.46 699.93 C 175.85 699.93 176.21 700.12 176.43 700.42 C 176.66 700.73 176.73 701.12 176.61 701.49 L 169.76 722.83 Z M 197.96 697.14 L 167.92 728.18 C 167.68 728.42 167.37 728.54 167.05 728.54 C 166.84 728.54 166.63 728.49 166.44 728.37 C 165.96 728.09 165.74 727.52 165.91 726.99 L 173.82 702.32 L 165.85 702.32 C 165.43 702.32 165.05 702.1 164.83 701.75 C 164.61 701.4 164.59 700.96 164.78 700.59 L 173.19 683.91 C 173.39 683.5 173.81 683.25 174.26 683.25 L 192.29 683.25 C 192.69 683.25 193.06 683.44 193.28 683.77 C 193.51 684.1 193.55 684.51 193.41 684.88 L 189.31 695.12 L 197.09 695.12 C 197.58 695.12 198.01 695.4 198.2 695.84 C 198.39 696.28 198.3 696.79 197.96 697.14 Z M 144.76 734.35 C 146.47 735.31 148.61 736.11 151.13 736.74 L 151.72 734.43 C 149.44 733.86 147.44 733.12 145.95 732.27 Z M 151.13 717.67 L 151.72 715.36 C 149.44 714.79 147.44 714.04 145.95 713.2 L 144.76 715.27 C 146.47 716.23 148.61 717.04 151.13 717.67 Z M 144.76 696.2 L 145.95 694.13 C 147.44 694.97 149.44 695.72 151.72 696.29 L 151.13 698.6 C 148.61 697.97 146.46 697.16 144.76 696.2 Z" fill="#ffffff" stroke="none" pointer-events="all" style="fill: light-dark(rgb(255, 255, 255), rgb(18, 18, 18));"/></g><g><g><switch><foreignObject style="overflow: visible; text-align: left;" pointer-events="none" width="100%" height="100%" requiredFeatures="http://www.w3.org/TR/SVG11/feature#Extensibility"><div xmlns="http://www.w3.org/1999/xhtml" style="display: flex; align-items: unsafe flex-end; justify-content: unsafe center; width: 95px; height: 1px; padding-top: 781px; margin-left: 122px;"><div style="box-sizing: border-box; font-size: 0; text-align: center; color: #232F3E; "><div style="display: inline-block; font-size: 10px; font-family: Helvetica; color: light-dark(#232F3E, #bdc7d4); line-height: 1.2; pointer-events: all; font-weight: bold; white-space: normal; word-wrap: normal; ">Amazon DynamoDB</div></div></div></foreignObject><text x="169" y="781" fill="#232F3E" font-family="Helvetica" font-size="10px" text-anchor="middle" font-weight="bold">Amazon DynamoDB</text></switch></g></g></g><g data-cell-id="Rh25Bf8e90bOP8UoptDW-7"><g transform="translate(0.5,0.5)"><rect x="480" y="460" width="110" height="81.8" fill="none" stroke="none" pointer-events="all"/><path d="M 547.92 482.38 C 539.87 482.38 533.03 487.54 530.48 494.73 L 535.83 494.73 C 538.09 490.33 542.65 487.32 547.92 487.32 C 555.41 487.32 561.5 493.41 561.5 500.9 C 561.5 508.39 555.41 514.48 547.92 514.48 C 543.71 514.48 539.94 512.56 537.45 509.54 L 531.55 509.54 C 534.66 515.41 540.83 519.42 547.92 519.42 C 558.13 519.42 566.44 511.12 566.44 500.9 C 566.44 490.68 558.13 482.38 547.92 482.38 Z M 480 521.89 L 512.11 521.89 L 512.11 516.95 L 480 516.95 Z M 480 484.85 L 512.11 484.85 L 512.11 479.91 L 480 479.91 Z M 480 504.6 L 546.68 504.6 L 546.68 499.67 L 480 499.67 Z M 583.34 528.66 L 570.93 517.48 C 569.9 518.91 568.74 520.24 567.47 521.45 L 579.81 532.59 C 580.89 533.56 582.57 533.47 583.54 532.39 C 584.51 531.31 584.42 529.63 583.34 528.66 Z M 587.21 535.69 C 585.71 537.35 583.65 538.19 581.57 538.19 C 579.77 538.19 577.95 537.55 576.51 536.26 L 563.56 524.58 C 559.08 527.56 553.7 529.3 547.92 529.3 C 535.27 529.3 524.54 520.99 520.87 509.54 L 526.13 509.54 C 529.58 518.21 538.04 524.36 547.92 524.36 C 560.86 524.36 571.38 513.84 571.38 500.9 C 571.38 487.96 560.86 477.44 547.92 477.44 C 537.12 477.44 528.03 484.78 525.31 494.73 L 520.21 494.73 C 523.04 482.02 534.38 472.5 547.92 472.5 C 563.58 472.5 576.32 485.24 576.32 500.9 C 576.32 505.29 575.29 509.43 573.5 513.15 L 586.65 524.99 C 589.75 527.79 590 532.59 587.21 535.69 Z M 480 541.65 L 526.93 541.65 L 526.93 536.71 L 480 536.71 Z M 480 465.09 L 531.87 465.09 L 531.87 460.15 L 480 460.15 Z" fill="#e7157b" stroke="none" pointer-events="all" style="fill: light-dark(rgb(231, 21, 123), rgb(255, 129, 217));"/></g></g><g data-cell-id="Rh25Bf8e90bOP8UoptDW-8"><g transform="translate(0.5,0.5)"><rect x="188" y="80" width="182" height="50" fill-opacity="0" fill="#ffffff" stroke="#000000" stroke-opacity="0" pointer-events="all" style="fill: var(--ge-adaptive-bg, #ffffff); stroke: light-dark(rgb(0, 0, 0), rgb(255, 255, 255));"/></g><g><g><switch><foreignObject style="overflow: visible; text-align: left;" pointer-events="none" width="100%" height="100%" requiredFeatures="http://www.w3.org/TR/SVG11/feature#Extensibility"><div xmlns="http://www.w3.org/1999/xhtml" style="display: flex; align-items: unsafe center; justify-content: unsafe center; width: 180px; height: 1px; padding-top: 105px; margin-left: 189px;"><div style="box-sizing: border-box; font-size: 0; text-align: center; color: #000000; "><div style="display: inline-block; font-size: 12px; font-family: Helvetica; color: light-dark(#000000, #ffffff); line-height: 1.2; pointer-events: all; white-space: normal; word-wrap: normal; "><font style="font-size: 16px;">🌍 Internet Users</font></div></div></div></foreignObject><text x="279" y="109" fill="light-dark(#000000, #ffffff)" font-family="Helvetica" font-size="12px" text-anchor="middle">🌍 Internet Users</text></switch></g></g></g><g data-cell-id="Rh25Bf8e90bOP8UoptDW-10"><g transform="translate(0.5,0.5)"><rect x="250" y="170" width="120" height="60" fill-opacity="0" fill="#ffffff" stroke="#000000" stroke-opacity="0" pointer-events="all" style="fill: var(--ge-adaptive-bg, #ffffff); stroke: light-dark(rgb(0, 0, 0), rgb(255, 255, 255));"/></g><g><g><switch><foreignObject style="overflow: visible; text-align: left;" pointer-events="none" width="100%" height="100%" requiredFeatures="http://www.w3.org/TR/SVG11/feature#Extensibility"><div xmlns="http://www.w3.org/1999/xhtml" style="display: flex; align-items: unsafe center; justify-content: unsafe center; width: 118px; height: 1px; padding-top: 200px; margin-left: 251px;"><div style="box-sizing: border-box; font-size: 0; text-align: center; color: #000000; "><div style="display: inline-block; font-size: 12px; font-family: Helvetica; color: light-dark(#000000, #ffffff); line-height: 1.2; pointer-events: all; white-space: normal; word-wrap: normal; "><font style="font-size: 14px;"><b style="">AWS Cloud</b></font></div></div></div></foreignObject><text x="310" y="204" fill="light-dark(#000000, #ffffff)" font-family="Helvetica" font-size="12px" text-anchor="middle">AWS Cloud</text></switch></g></g></g><g data-cell-id="Rh25Bf8e90bOP8UoptDW-13"><g transform="translate(0.5,0.5)"><path d="M 160 350 L 160 443.63" fill="none" stroke="#000000" stroke-miterlimit="10" pointer-events="stroke" style="stroke: light-dark(rgb(0, 0, 0), rgb(255, 255, 255));"/><path d="M 160 448.88 L 156.5 441.88 L 160 443.63 L 163.5 441.88 Z" fill="#000000" stroke="#000000" stroke-miterlimit="10" pointer-events="all" style="fill: light-dark(rgb(0, 0, 0), rgb(255, 255, 255)); stroke: light-dark(rgb(0, 0, 0), rgb(255, 255, 255));"/></g></g><g data-cell-id="Rh25Bf8e90bOP8UoptDW-15"><g transform="translate(0.5,0.5)"><rect x="30" y="350" width="120" height="40" fill-opacity="0" fill="#ffffff" stroke="#000000" stroke-opacity="0" pointer-events="all" style="fill: var(--ge-adaptive-bg, #ffffff); stroke: light-dark(rgb(0, 0, 0), rgb(255, 255, 255));"/></g><g><g><switch><foreignObject style="overflow: visible; text-align: left;" pointer-events="none" width="100%" height="100%" requiredFeatures="http://www.w3.org/TR/SVG11/feature#Extensibility"><div xmlns="http://www.w3.org/1999/xhtml" style="display: flex; align-items: unsafe center; justify-content: unsafe center; width: 118px; height: 1px; padding-top: 370px; margin-left: 31px;"><div style="box-sizing: border-box; font-size: 0; text-align: center; color: #000000; "><div style="display: inline-block; font-size: 12px; font-family: Helvetica; color: light-dark(#000000, #ffffff); line-height: 1.2; pointer-events: all; white-space: normal; word-wrap: normal; ">Amazon API Gateway<div>POST /shorten <div> GET /{code}</div></div></div></div></div></foreignObject><text x="90" y="374" fill="light-dark(#000000, #ffffff)" font-family="Helvetica" font-size="12px" text-anchor="middle">Amazon API Gateway...</text></switch></g></g></g><g data-cell-id="Rh25Bf8e90bOP8UoptDW-16"><g transform="translate(0.5,0.5)"><rect x="20" y="570" width="120" height="40" fill-opacity="0" fill="#ffffff" stroke="#000000" stroke-opacity="0" pointer-events="all" style="fill: var(--ge-adaptive-bg, #ffffff); stroke: light-dark(rgb(0, 0, 0), rgb(255, 255, 255));"/></g><g><g><switch><foreignObject style="overflow: visible; text-align: left;" pointer-events="none" width="100%" height="100%" requiredFeatures="http://www.w3.org/TR/SVG11/feature#Extensibility"><div xmlns="http://www.w3.org/1999/xhtml" style="display: flex; align-items: unsafe center; justify-content: unsafe center; width: 118px; height: 1px; padding-top: 591px; margin-left: 21px;"><div style="box-sizing: border-box; font-size: 0; text-align: center; color: #000000; "><div style="display: inline-block; font-size: 12px; font-family: Helvetica; color: light-dark(#000000, #ffffff); line-height: 1.2; pointer-events: all; white-space: normal; word-wrap: normal; "><div style="line-height: 100%;"> <span style="background-color: transparent; color: light-dark(rgb(0, 0, 0), rgb(255, 255, 255));">AWS Lambda</span></div><div style="line-height: 100%;"><span style="background-color: transparent; color: light-dark(rgb(0, 0, 0), rgb(255, 255, 255));">Generate Short URL</span></div><div style="line-height: 100%;"><br />Redirect Requests</div></div></div></div></foreignObject><text x="80" y="595" fill="light-dark(#000000, #ffffff)" font-family="Helvetica" font-size="12px" text-anchor="middle">AWS Lambda...</text></switch></g></g></g><g data-cell-id="Rh25Bf8e90bOP8UoptDW-19"><g transform="translate(0.5,0.5)"><rect x="500" y="570" width="100" height="50" fill-opacity="0" fill="#ffffff" stroke="#000000" stroke-opacity="0" pointer-events="all" style="fill: var(--ge-adaptive-bg, #ffffff); stroke: light-dark(rgb(0, 0, 0), rgb(255, 255, 255));"/></g><g><g><switch><foreignObject style="overflow: visible; text-align: left;" pointer-events="none" width="100%" height="100%" requiredFeatures="http://www.w3.org/TR/SVG11/feature#Extensibility"><div xmlns="http://www.w3.org/1999/xhtml" style="display: flex; align-items: unsafe center; justify-content: unsafe center; width: 98px; height: 1px; padding-top: 600px; margin-left: 501px;"><div style="box-sizing: border-box; font-size: 0; text-align: center; color: #000000; "><div style="display: inline-block; font-size: 12px; font-family: Helvetica; color: light-dark(#000000, #ffffff); line-height: 1.2; pointer-events: all; white-space: normal; word-wrap: normal; "><div style="line-height: 100%;"><div><span style="background-color: transparent; color: light-dark(rgb(0, 0, 0), rgb(255, 255, 255));">Amazon CloudWatch</span></div><div style="line-height: 100%;"><br /></div><div>Logs<br /><br />Monitoring</div></div></div></div></div></foreignObject><text x="550" y="603" fill="light-dark(#000000, #ffffff)" font-family="Helvetica" font-size="12px" text-anchor="middle">Amazon CloudWatc...</text></switch></g></g></g><g data-cell-id="Rh25Bf8e90bOP8UoptDW-20"><g transform="translate(0.5,0.5)"><rect x="10" y="770" width="150" height="40" fill-opacity="0" fill="#ffffff" stroke="#000000" stroke-opacity="0" pointer-events="all" style="fill: var(--ge-adaptive-bg, #ffffff); stroke: light-dark(rgb(0, 0, 0), rgb(255, 255, 255));"/></g><g><g><switch><foreignObject style="overflow: visible; text-align: left;" pointer-events="none" width="100%" height="100%" requiredFeatures="http://www.w3.org/TR/SVG11/feature#Extensibility"><div xmlns="http://www.w3.org/1999/xhtml" style="display: flex; align-items: unsafe center; justify-content: unsafe center; width: 148px; height: 1px; padding-top: 790px; margin-left: 11px;"><div style="box-sizing: border-box; font-size: 0; text-align: center; color: #000000; "><div style="display: inline-block; font-size: 12px; font-family: Helvetica; color: light-dark(#000000, #ffffff); line-height: 1.2; pointer-events: all; white-space: normal; word-wrap: normal; ">Amazon DynamoDB<br /><br />URL Mapping<br /><div>shortCode -&gt; <span style="background-color: transparent; color: light-dark(rgb(0, 0, 0), rgb(255, 255, 255));">Original URL</span></div></div></div></div></foreignObject><text x="85" y="794" fill="light-dark(#000000, #ffffff)" font-family="Helvetica" font-size="12px" text-anchor="middle">Amazon DynamoDB...</text></switch></g></g></g><g data-cell-id="Rh25Bf8e90bOP8UoptDW-21"><g transform="translate(0.5,0.5)"><rect x="80" y="950" width="380" height="60" fill-opacity="0" fill="#ffffff" stroke="#000000" stroke-opacity="0" pointer-events="all" style="fill: var(--ge-adaptive-bg, #ffffff); stroke: light-dark(rgb(0, 0, 0), rgb(255, 255, 255));"/></g><g><g><switch><foreignObject style="overflow: visible; text-align: left;" pointer-events="none" width="100%" height="100%" requiredFeatures="http://www.w3.org/TR/SVG11/feature#Extensibility"><div xmlns="http://www.w3.org/1999/xhtml" style="display: flex; align-items: unsafe center; justify-content: unsafe center; width: 378px; height: 1px; padding-top: 980px; margin-left: 81px;"><div style="box-sizing: border-box; font-size: 0; text-align: center; color: #000000; "><div style="display: inline-block; font-size: 12px; font-family: Helvetica; color: light-dark(#000000, #ffffff); line-height: 1.2; pointer-events: all; white-space: normal; word-wrap: normal; ">Designed by Claude Emmanuel Ouamba <div> AWS Certified Solutions Architect</div></div></div></div></foreignObject><text x="270" y="984" fill="light-dark(#000000, #ffffff)" font-family="Helvetica" font-size="12px" text-anchor="middle">Designed by Claude Emmanuel Ouamba...</text></switch></g></g></g><g data-cell-id="Rh25Bf8e90bOP8UoptDW-22"><g transform="translate(0.5,0.5)"><rect x="0" y="190" width="600" height="720" rx="90" ry="90" fill-opacity="0.3" fill="#ffffff" stroke="#000000" stroke-opacity="0.3" pointer-events="all" style="fill: var(--ge-adaptive-bg, #ffffff); stroke: light-dark(rgb(0, 0, 0), rgb(255, 255, 255));"/></g></g><g data-cell-id="Rh25Bf8e90bOP8UoptDW-24"><g transform="translate(0.5,0.5)"><path d="M 279.04 130 L 279.04 183.61" fill="none" stroke="#000000" stroke-miterlimit="10" pointer-events="stroke" style="stroke: light-dark(rgb(0, 0, 0), rgb(255, 255, 255));"/><path d="M 279.04 188.86 L 275.54 181.86 L 279.04 183.61 L 282.54 181.86 Z" fill="#000000" stroke="#000000" stroke-miterlimit="10" pointer-events="all" style="fill: light-dark(rgb(0, 0, 0), rgb(255, 255, 255)); stroke: light-dark(rgb(0, 0, 0), rgb(255, 255, 255));"/></g></g></g></g></g></svg>